<svg width="29" height="37" viewBox="0 0 29 37" fill="none" xmlns="http://www.w3.org/2000/svg">
<path d="M14.5463 36.7498C19.6882 30.6758 28.6286 24.3103 28.8138 15.5638H26.4514C26.2197 22.2695 20.9852 28.2462 14.5463 28.2462C13.2956 28.2462 12.0449 28.0033 10.8868 27.566L11.35 25.3793C11.6743 25.3793 11.9986 25.1364 12.0449 24.7962C12.0449 24.699 12.0449 24.6505 12.0449 24.5533C12.0912 24.5533 12.1375 24.5533 12.1838 24.5533C13.7125 24.6019 15.2875 24.6019 16.8162 24.5533C16.8625 24.5533 16.9088 24.5533 16.9551 24.5533C16.9551 24.6505 16.9551 24.699 16.9551 24.7962C17.0014 25.1364 17.3257 25.3793 17.65 25.3793L18.1132 27.566C18.5301 27.4202 18.947 27.2258 19.3639 26.9829L18.9933 25.0878L19.1786 25.0392C19.225 25.0392 19.3176 24.9906 19.3639 24.9906C19.6419 24.8448 19.8272 24.5047 19.7345 24.1645C19.7345 24.0674 19.6882 23.9702 19.5955 23.873C20.1514 23.63 20.6147 23.3385 21.0779 22.9498C22.6529 21.6378 23.5793 19.8885 23.5793 17.9934C23.672 17.9934 23.7183 17.9934 23.8109 17.9934C24.0889 17.9448 24.3205 17.7019 24.3205 17.3617C24.2742 17.0702 24.0426 16.8272 23.7183 16.8758C17.5573 17.4589 11.35 17.4589 5.18905 16.8758C4.91111 16.8272 4.63318 17.0702 4.58685 17.3617C4.54053 17.6533 4.77215 17.9448 5.09641 17.9934C5.18905 17.9934 5.23538 17.9934 5.32802 17.9934C5.32802 19.8399 6.25449 21.6378 7.82947 22.9498C8.2927 23.3385 8.80226 23.63 9.31181 23.873C9.26549 23.9702 9.21916 24.0674 9.17284 24.1645C9.12652 24.5047 9.26549 24.8448 9.54343 24.9906C9.58975 25.0392 9.63607 25.0392 9.72872 25.0392L9.91401 25.0878L9.54343 26.9829C5.37435 24.8448 2.45599 20.0828 2.45599 14.9807C2.54864 8.08073 7.92212 2.44411 14.5463 2.44411C19.7808 2.44411 22.2823 4.92228 24.0889 7.30326L22.7918 7.98354L26.8683 10.5589L27.4242 5.60256L26.1271 6.23425C23.0235 1.9096 18.7154 0.0145264 14.5463 0.0145264C6.62507 0.0145264 0.23248 6.18566 0.186157 15.0293C0.186157 22.3667 5.74493 27.5659 14.5463 36.7498Z" fill="#CC0000"/>
<path d="M23.6055 14.4464C23.1423 12.114 21.1967 10.2676 18.6026 9.29572C18.6026 8.76122 18.5563 8.22671 18.5563 7.6922C18.5099 6.5746 17.5835 5.69995 16.5181 5.69995C15.1747 5.74854 13.8313 5.74854 12.4879 5.69995C11.4225 5.69995 10.496 6.5746 10.4497 7.6922C10.4497 8.22671 10.4034 8.76122 10.4034 9.29572C7.80931 10.2676 5.86374 12.114 5.40051 14.4464C5.30786 14.4464 5.26154 14.4464 5.16889 14.4464C4.89095 14.3978 4.61302 14.6408 4.56669 14.9323C4.52037 15.2239 4.75199 15.4668 5.07625 15.5154C11.3299 16.0985 17.6298 16.0985 23.9297 15.5154C24.2077 15.4668 24.4393 15.2239 24.4393 14.9323C24.393 14.6408 24.1614 14.4464 23.8371 14.4464C23.7445 14.4464 23.6518 14.4464 23.6055 14.4464ZM14.4798 8.61544C13.3218 8.61544 12.21 8.76122 11.1909 9.05277C11.1909 8.61544 11.2372 8.17812 11.2372 7.74079C11.2372 7.06051 11.7931 6.52601 12.4416 6.52601C13.785 6.5746 15.1284 6.5746 16.5181 6.52601C17.1666 6.52601 17.7225 7.06051 17.7225 7.74079C17.7225 8.17812 17.7688 8.61544 17.7688 9.05277C16.7497 8.76122 15.6379 8.61544 14.4798 8.61544Z" fill="#CC0000"/>
</svg>
